<?xml version="1.0" encoding="UTF-8"?>
<svg version="1.1" xmlns="http://www.w3.org/2000/svg" width="738" height="512">
<path d="M0 0 C243.54 0 487.08 0 738 0 C738 168.96 738 337.92 738 512 C494.46 512 250.92 512 0 512 C0 343.04 0 174.08 0 0 Z " fill="#000000" transform="translate(0,0)"/>
<path d="M0 0 C0 0.66 0 1.32 0 2 C0.7425 2.12375 1.485 2.2475 2.25 2.375 C4.80141485 2.95486701 6.7267573 3.73708739 9 5 C9 5.66 9 6.32 9 7 C9.7233252 7.11375977 10.44665039 7.22751953 11.19189453 7.34472656 C14.13060389 8.03047651 16.28887708 9.03650177 18.9296875 10.484375 C19.8794043 11.00153076 20.82912109 11.51868652 21.80761719 12.05151367 C22.81985352 12.61201416 23.83208984 13.17251465 24.875 13.75 C26.44749512 14.61105347 26.44749512 14.61105347 28.05175781 15.48950195 C36.63783261 20.20645595 45.174588 25.0118788 53.68701172 29.86035156 C54.5895166 30.37436523 55.49202148 30.88837891 56.421875 31.41796875 C57.21174805 31.86938232 58.00162109 32.3207959 58.81542969 32.78588867 C60.85144219 33.91743652 62.90801258 34.97635658 65 36 C65 36.66 65 37.32 65 38 C66.11375 38.185625 66.11375 38.185625 67.25 38.375 C69.80141485 38.95486701 71.7267573 39.73708739 74 41 C74 41.66 74 42.32 74 43 C74.7233252 43.11375977 75.44665039 43.22751953 76.19189453 43.34472656 C79.13060389 44.03047651 81.28887708 45.03650177 83.9296875 46.484375 C84.8794043 47.00153076 85.82912109 47.51868652 86.80761719 48.05151367 C87.81985352 48.61201416 88.83208984 49.17251465 89.875 49.75 C91.44749512 50.61105347 91.44749512 50.61105347 93.05175781 51.48950195 C101.63783261 56.20645595 110.174588 61.0118788 118.68701172 65.86035156 C119.5895166 66.37436523 120.49202148 66.88837891 121.421875 67.41796875 C122.21174805 67.86938232 123.00162109 68.3207959 123.81542969 68.78588867 C125.85144219 69.91743652 127.90801258 70.97635658 130 72 C130 72.66 130 73.32 130 74 C130.7233252 74.11375977 131.44665039 74.22751953 132.19189453 74.34472656 C135.13060389 75.03047651 137.28887708 76.03650177 139.9296875 77.484375 C140.8786792 78.00112793 141.8276709 78.51788086 142.80541992 79.05029297 C143.81838135 79.61119629 144.83134277 80.17209961 145.875 80.75 C147.45728394 81.6164917 147.45728394 81.6164917 149.0715332 82.50048828 C157.445574 87.10119912 165.76714888 91.79461946 174.07397461 96.51538086 C180.99602412 100.4475224 187.9595563 104.2838349 195 108 C195 108.66 195 109.32 195 110 C195.7233252 110.11375977 196.44665039 110.22751953 197.19189453 110.34472656 C200.13060389 111.03047651 202.28887708 112.03650177 204.9296875 113.484375 C205.8786792 114.00112793 206.8276709 114.51788086 207.80541992 115.05029297 C208.81838135 115.61119629 209.83134277 116.17209961 210.875 116.75 C212.45728394 117.6164917 212.45728394 117.6164917 214.0715332 118.50048828 C222.445574 123.10119912 230.76714888 127.79461946 239.07397461 132.51538086 C245.99602412 136.4475224 252.9595563 140.2838349 260 144 C260 144.66 260 145.32 260 146 C260.70882324 146.10578369 261.41764648 146.21156738 262.14794922 146.32055664 C265.34205694 147.08148814 267.75557821 148.29293629 270.6328125 149.87109375 C271.68597656 150.44537109 272.73914063 151.01964844 273.82421875 151.61132812 C274.91347656 152.21396484 276.00273438 152.81660156 277.125 153.4375 C278.22199219 154.03626953 279.31898438 154.63503906 280.44921875 155.25195312 C288.46573795 159.6438253 288.46573795 159.6438253 292 162 C292.28631983 164.72180044 292.37831034 167.21520901 292.34057617 169.93798828 C292.34101425 170.75758026 292.34145233 171.57717224 292.34190369 172.42160034 C292.33980906 175.13807778 292.31644665 177.85394253 292.29296875 180.5703125 C292.28737518 182.45075137 292.28310396 184.3311946 292.28010559 186.2116394 C292.26863795 191.1667279 292.23915435 196.1215536 292.20599365 201.07653809 C292.17533404 206.1304163 292.16160906 211.18433689 292.14648438 216.23828125 C292.11428643 226.15896979 292.06306699 236.07946306 292 246 C290.99978821 246.53965393 290.99978821 246.53965393 289.97937012 247.09020996 C286.89186938 248.75689737 283.80530727 250.42531606 280.71875 252.09375 C279.14625488 252.94211426 279.14625488 252.94211426 277.54199219 253.80761719 C270.48188074 257.62595173 263.47446473 261.52756981 256.5 265.5 C248.29242031 270.1629648 240.04572522 274.7454661 231.75 279.25 C230.71939453 279.81138672 229.68878906 280.37277344 228.62695312 280.95117188 C227.19512695 281.72557617 227.19512695 281.72557617 225.734375 282.515625 C224.46932129 283.20060059 224.46932129 283.20060059 223.17871094 283.89941406 C221 285 221 285 218 286 C218 322.96 218 359.92 218 398 C210.08 402.29 202.16 406.58 194 411 C184.61386165 416.28290847 175.23250492 421.57200469 165.88868713 426.929245 C163.03354124 428.56328835 160.17232927 430.18667124 157.3125 431.8125 C155.70773804 432.73857056 155.70773804 432.73857056 154.07055664 433.68334961 C152.57576782 434.53038452 152.57576782 434.53038452 151.05078125 435.39453125 C150.17075439 435.89831299 149.29072754 436.40209473 148.3840332 436.92114258 C146 438 146 438 142 438 C139.52416992 436.92114258 139.52416992 436.92114258 136.73046875 435.39453125 C135.1676416 434.54737549 135.1676416 434.54737549 133.57324219 433.68310547 C132.45594727 433.06580566 131.33865234 432.44850586 130.1875 431.8125 C129.01624698 431.17279675 127.84469327 430.53364376 126.67285156 429.89501953 C118.21953804 425.27545251 109.82335538 420.55337546 101.45532227 415.78125 C96.56798877 412.99752606 91.66129324 410.26016961 86.7109375 407.58984375 C85.6909668 407.0395752 84.67099609 406.48930664 83.62011719 405.92236328 C81.66251222 404.87015859 79.70232157 403.82274666 77.73925781 402.78076172 C76.86881836 402.31299316 75.99837891 401.84522461 75.1015625 401.36328125 C74.33150879 400.95376221 73.56145508 400.54424316 72.76806641 400.12231445 C71 399 71 399 70 397 C69.9078512 395.51748736 69.87806899 394.0308745 69.87974548 392.54550171 C69.87768349 391.14042107 69.87768349 391.14042107 69.87557983 389.70695496 C69.87917511 388.67621353 69.88277039 387.64547211 69.88647461 386.58349609 C69.88632858 385.50055771 69.88618256 384.41761932 69.8860321 383.30186462 C69.88673085 379.70903547 69.89452148 376.11625764 69.90234375 372.5234375 C69.90420807 370.03764881 69.9056319 367.55185975 69.90663147 365.06607056 C69.91006435 359.18353603 69.91795227 353.30102057 69.92798096 347.41849387 C69.94024508 340.06545754 69.94562374 332.71241893 69.95117188 325.359375 C69.96190732 312.23957391 69.97879114 299.11978812 70 286 C69.06946304 285.69973907 68.13892609 285.39947815 67.18019104 285.09011841 C63.90284625 283.96669726 61.11239794 282.55556642 58.08984375 280.8671875 C56.94870117 280.23337158 55.80755859 279.59955566 54.63183594 278.9465332 C53.40035872 278.25607904 52.16891422 277.56556652 50.9375 276.875 C49.65817337 276.16247326 48.37854578 275.45048664 47.09863281 274.73901367 C44.42576573 273.25271252 41.75422381 271.7640674 39.08349609 270.27392578 C33.10962538 266.94372096 27.11773619 263.64620007 21.12698364 260.34649658 C18.15169767 258.70746497 15.17735809 257.06672283 12.203125 255.42578125 C11.13642578 254.8426416 10.06972656 254.25950195 8.97070312 253.65869141 C7.08952317 252.60833501 5.22576749 251.52558715 3.38867188 250.39990234 C2.61587891 249.93148926 1.84308594 249.46307617 1.046875 248.98046875 C0.40073242 248.57078857 -0.24541016 248.1611084 -0.91113281 247.73901367 C-4.80616218 246.36100363 -8.06293493 247.57074843 -11.69946289 249.23657227 C-12.6146167 249.75791748 -13.52977051 250.2792627 -14.47265625 250.81640625 C-15.52316162 251.40808594 -16.57366699 251.99976563 -17.65600586 252.609375 C-18.78014893 253.25390625 -19.90429199 253.8984375 -21.0625 254.5625 C-22.24886545 255.2340718 -23.43580749 255.90462593 -24.62329102 256.57421875 C-26.48711983 257.62539456 -28.35051472 258.67727553 -30.21208191 259.73245239 C-34.72557555 262.28986729 -39.25825471 264.81024488 -43.8046875 267.30859375 C-44.44548752 267.66079483 -45.08628754 268.01299591 -45.74650574 268.37586975 C-48.24406959 269.74779277 -50.74217557 271.11872418 -53.24075317 272.48880005 C-60.45670777 276.44826743 -67.60162778 280.49140044 -74.65649414 284.73242188 C-77 286 -77 286 -79 286 C-79 322.96 -79 359.92 -79 398 C-86.92 402.29 -94.84 406.58 -103 411 C-112.38613835 416.28290847 -121.76749508 421.57200469 -131.11131287 426.929245 C-133.96645876 428.56328835 -136.82767073 430.18667124 -139.6875 431.8125 C-140.75734131 432.42988037 -141.82718262 433.04726074 -142.92944336 433.68334961 C-144.42423218 434.53038452 -144.42423218 434.53038452 -145.94921875 435.39453125 C-146.82924561 435.89831299 -147.70927246 436.40209473 -148.6159668 436.92114258 C-151 438 -151 438 -155 438 C-157.47583008 436.92114258 -157.47583008 436.92114258 -160.26953125 435.39453125 C-161.8323584 434.54737549 -161.8323584 434.54737549 -163.42675781 433.68310547 C-165.1027002 432.75715576 -165.1027002 432.75715576 -166.8125 431.8125 C-167.98375302 431.17279675 -169.15530673 430.53364376 -170.32714844 429.89501953 C-178.78046196 425.27545251 -187.17664462 420.55337546 -195.54467773 415.78125 C-200.43201123 412.99752606 -205.33870676 410.26016961 -210.2890625 407.58984375 C-211.3090332 407.0395752 -212.32900391 406.48930664 -213.37988281 405.92236328 C-215.33748778 404.87015859 -217.29767843 403.82274666 -219.26074219 402.78076172 C-220.13118164 402.31299316 -221.00162109 401.84522461 -221.8984375 401.36328125 C-222.66849121 400.95376221 -223.43854492 400.54424316 -224.23193359 400.12231445 C-226 399 -226 399 -227 397 C-227.0921488 395.51748736 -227.12193101 394.0308745 -227.12025452 392.54550171 C-227.12231651 391.14042107 -227.12231651 391.14042107 -227.12442017 389.70695496 C-227.11902725 388.16084282 -227.11902725 388.16084282 -227.11352539 386.58349609 C-227.11367142 385.50055771 -227.11381744 384.41761932 -227.1139679 383.30186462 C-227.11326915 379.70903547 -227.10547852 376.11625764 -227.09765625 372.5234375 C-227.09579193 370.03764881 -227.0943681 367.55185975 -227.09336853 365.06607056 C-227.08993565 359.18353603 -227.08204773 353.30102057 -227.07201904 347.41849387 C-227.05975492 340.06545754 -227.05437626 332.71241893 -227.04882812 325.359375 C-227.03809268 312.23957391 -227.02120886 299.11978812 -227 286 C-227.93053696 285.69973907 -228.86107391 285.39947815 -229.81980896 285.09011841 C-233.09715375 283.96669726 -235.88760206 282.55556642 -238.91015625 280.8671875 C-240.62174927 279.91658447 -240.62174927 279.91658447 -242.36791992 278.94677734 C-243.59949764 278.25627589 -244.83102303 277.5656811 -246.0625 276.875 C-247.34256936 276.16175958 -248.62292921 275.44904028 -249.90356445 274.73681641 C-251.89855781 273.62702799 -253.89324418 272.51671161 -255.88682556 271.40438843 C-260.58438351 268.78351018 -265.29251722 266.18256665 -270.0078125 263.59375 C-270.97970772 263.05973068 -270.97970772 263.05973068 -271.97123718 262.5149231 C-275.73784054 260.44532275 -275.73784054 260.44532275 -279.50588989 258.37835693 C-299.68945722 247.31054278 -299.68945722 247.31054278 -302 245 C-302.09506052 242.44410112 -302.12556761 239.91532028 -302.11352539 237.35913086 C-302.11367142 236.55919205 -302.11381744 235.75925323 -302.1139679 234.93507385 C-302.11326855 232.27830335 -302.10547518 229.62160207 -302.09765625 226.96484375 C-302.09579215 225.12781309 -302.09436821 223.29078194 -302.09336853 221.45375061 C-302.08954275 216.60890338 -302.07971196 211.76408592 -302.06866455 206.91925049 C-302.05845172 201.97937422 -302.05387119 197.03949315 -302.04882812 192.09960938 C-302.03808974 182.39972647 -302.0210126 172.69986571 -302 163 C-280.09266194 150.4119197 -280.09266194 150.4119197 -269.125 144.5625 C-261.19533896 140.30101658 -253.3236128 135.95312162 -245.5 131.5 C-237.7165851 127.07049545 -229.88600423 122.74415276 -222 118.5 C-214.22185717 114.31234765 -206.49240349 110.05275661 -198.8125 105.6875 C-190.20004905 100.79274466 -181.55196991 95.96661853 -172.875 91.1875 C-171.96353714 90.6854303 -171.96353714 90.6854303 -171.03366089 90.17321777 C-167.93302649 88.46560866 -164.83188862 86.75891642 -161.73046875 85.05273438 C-155.60963765 81.68523767 -149.49215702 78.31166489 -143.375 74.9375 C-142.77419617 74.60616058 -142.17339233 74.27482117 -141.55438232 73.93344116 C-131.746278 68.52375892 -121.95239045 63.08880578 -112.16357422 57.64428711 C-103.9518311 53.0789504 -95.72841599 48.53518015 -87.5 44 C-71.84096875 35.36871525 -56.2111104 26.68519561 -40.58883667 17.98756409 C-38.1798741 16.64659253 -35.77053427 15.30629969 -33.36114502 13.96609497 C-31.69660242 13.03984387 -30.03261479 12.11259565 -28.36865234 11.18530273 C-26.2974413 10.03318153 -24.22311624 8.88663822 -22.14550781 7.74609375 C-19.92307435 6.51240514 -17.7256887 5.25845556 -15.53417969 3.97265625 C-14.39625977 3.32167969 -13.25833984 2.67070313 -12.0859375 2 C-11.06290527 1.401875 -10.03987305 0.80375 -8.98583984 0.1875 C-5.49577606 -1.20053518 -3.58537559 -0.94095225 0 0 Z " fill="#7CA9AF" transform="translate(376,31)"/>
<path d="M0 0 C3.72472753 1.21162668 7.11121012 2.45416224 10.5234375 4.3828125 C11.31621094 4.82753906 12.10898438 5.27226562 12.92578125 5.73046875 C14.13814453 6.42076172 14.13814453 6.42076172 15.375 7.125 C16.20644531 7.59292969 17.03789063 8.06085938 17.89453125 8.54296875 C19.93234954 9.69070549 21.96735569 10.84313282 24 12 C24 12.66 24 13.32 24 14 C24.7425 14.12375 25.485 14.2475 26.25 14.375 C28.80141485 14.95486701 30.7267573 15.73708739 33 17 C33 17.66 33 18.32 33 19 C33.71607422 19.11013428 34.43214844 19.22026855 35.16992188 19.33374023 C38.230917 20.05436271 40.52285631 21.15726796 43.28125 22.66015625 C44.282771 23.20091797 45.28429199 23.74167969 46.31616211 24.29882812 C48.46566943 25.48953749 50.60962011 26.69032564 52.74829102 27.90039062 C59.38508491 31.70567793 59.38508491 31.70567793 66.43359375 34.62109375 C70.45064042 36.2019382 72.2439902 37.694772 75 41 C75.79248047 44.27734375 75.79248047 44.27734375 75.9921875 47.9375 C76.06703369 49.2471875 76.14187988 50.556875 76.21899414 51.90625 C76.39993951 57.94825176 76.23743451 63.95904323 76 70 C81.61 72.97 87.22 75.94 93 79 C93 79.66 93 80.32 93 81 C94.11375 81.185625 94.11375 81.185625 95.25 81.375 C97.80141485 81.95486701 99.7267573 82.73708739 102 84 C102 84.66 102 85.32 102 86 C102.71969971 86.11158447 103.43939941 86.22316895 104.1809082 86.33813477 C107.18621541 87.04371958 109.40483357 88.1040289 112.10546875 89.58984375 C113.09095703 90.12802734 114.07644531 90.66621094 115.09179688 91.22070312 C116.11337891 91.78724609 117.13496094 92.35378906 118.1875 92.9375 C119.15880859 93.46923828 120.13011719 94.00097656 121.13085938 94.54882812 C130.443404 99.65725292 139.71533715 104.84185397 149 110 C149 164.45 149 218.9 149 275 C144.5023395 273.50077983 141.13951393 272.12930667 137.08984375 269.8671875 C135.94870117 269.23337158 134.80755859 268.59955566 133.63183594 267.9465332 C132.40035872 267.25607904 131.16891422 266.56556652 129.9375 265.875 C128.65817337 265.16247326 127.37854578 264.45048664 126.09863281 263.73901367 C123.42576573 262.25271252 120.75422381 260.7640674 118.08349609 259.27392578 C112.10962538 255.94372096 106.11773619 252.64620007 100.12698364 249.34649658 C96.07947709 247.11679791 92.03300815 244.88524391 87.99023438 242.64697266 C86.07012534 241.5894077 84.14473187 240.54134973 82.21289062 239.50537109 C81.39498047 239.06402832 80.57707031 238.62268555 79.734375 238.16796875 C79.03022461 237.79309326 78.32607422 237.41821777 77.60058594 237.03198242 C76 236 76 236 75 234 C74.9078512 232.51748736 74.87806899 231.0308745 74.87974548 229.54550171 C74.87768349 228.14042107 74.87768349 228.14042107 74.87557983 226.70695496 C74.88097275 225.16084282 74.88097275 225.16084282 74.88647461 223.58349609 C74.88632858 222.50055771 74.88618256 221.41761932 74.8860321 220.30186462 C74.88673085 216.70903547 74.89452148 213.11625764 74.90234375 209.5234375 C74.90420807 207.03764881 74.9056319 204.55185975 74.90663147 202.06607056 C74.91006435 196.18353603 74.91795227 190.30102057 74.92798096 184.41849387 C74.94024508 177.06545754 74.94562374 169.71241893 74.95117188 162.359375 C74.96190732 149.23957391 74.97879114 136.11978812 75 123 C74.06946304 122.69973907 73.13892609 122.39947815 72.18019104 122.09011841 C68.90284625 120.96669726 66.11239794 119.55556642 63.08984375 117.8671875 C61.94878174 117.23345215 60.80771973 116.5997168 59.63208008 115.94677734 C58.40050236 115.25627589 57.16897697 114.5656811 55.9375 113.875 C54.65743064 113.16175958 53.37707079 112.44904028 52.09643555 111.73681641 C50.10144219 110.62702799 48.10675582 109.51671161 46.11317444 108.40438843 C41.41561649 105.78351018 36.70748278 103.18256665 31.9921875 100.59375 C31.02029228 100.05973068 31.02029228 100.05973068 30.02876282 99.5149231 C26.26215946 97.44532275 26.26215946 97.44532275 22.49411011 95.37835693 C2.31054278 84.31054278 2.31054278 84.31054278 0 82 C-0.09506052 79.44410112 -0.12556761 76.91532028 -0.11352539 74.35913086 C-0.11367142 73.55919205 -0.11381744 72.75925323 -0.1139679 71.93507385 C-0.11326855 69.27830335 -0.10547518 66.62160207 -0.09765625 63.96484375 C-0.09579215 62.12781309 -0.09436821 60.29078194 -0.09336853 58.45375061 C-0.08954275 53.60890338 -0.07971196 48.76408592 -0.06866455 43.91925049 C-0.05845172 38.97937422 -0.05387119 34.03949315 -0.04882812 29.09960938 C-0.03808974 19.39972647 -0.0210126 9.69986571 0 0 Z " fill="#CDEEE5" transform="translate(74,194)"/>
<path d="M0 0 C3.56732419 0.65799101 6.2644039 1.48840222 9.42578125 3.28515625 C10.22177734 3.73310547 11.01777344 4.18105469 11.83789062 4.64257812 C12.65451172 5.11115234 13.47113281 5.57972656 14.3125 6.0625 C15.14845703 6.53494141 15.98441406 7.00738281 16.84570312 7.49414062 C18.90069265 8.65667756 20.95187737 9.82542091 23 11 C23 11.66 23 12.32 23 13 C23.7425 13.12375 24.485 13.2475 25.25 13.375 C27.80141485 13.95486701 29.7267573 14.73708739 32 16 C32 16.66 32 17.32 32 18 C32.71607422 18.11013428 33.43214844 18.22026855 34.16992188 18.33374023 C37.230917 19.05436271 39.52285631 20.15726796 42.28125 21.66015625 C43.282771 22.20091797 44.28429199 22.74167969 45.31616211 23.29882812 C47.46566943 24.48953749 49.60962011 25.69032564 51.74829102 26.90039062 C58.38508491 30.70567793 58.38508491 30.70567793 65.43359375 33.62109375 C69.45064042 35.2019382 71.2439902 36.694772 74 40 C74.79248047 43.27734375 74.79248047 43.27734375 74.9921875 46.9375 C75.06703369 48.2471875 75.14187988 49.556875 75.21899414 50.90625 C75.39993951 56.94825176 75.23743451 62.95904323 75 69 C80.61 71.97 86.22 74.94 92 78 C92 78.66 92 79.32 92 80 C93.11375 80.185625 93.11375 80.185625 94.25 80.375 C96.80141485 80.95486701 98.7267573 81.73708739 101 83 C101 83.66 101 84.32 101 85 C101.71969971 85.11158447 102.43939941 85.22316895 103.1809082 85.33813477 C106.18621541 86.04371958 108.40483357 87.1040289 111.10546875 88.58984375 C112.09095703 89.12802734 113.07644531 89.66621094 114.09179688 90.22070312 C115.11337891 90.78724609 116.13496094 91.35378906 117.1875 91.9375 C118.15880859 92.46923828 119.13011719 93.00097656 120.13085938 93.54882812 C129.443404 98.65725292 138.71533715 103.84185397 148 109 C148 163.45 148 217.9 148 274 C143.5023395 272.50077983 140.13951393 271.12930667 136.08984375 268.8671875 C134.94870117 268.23337158 133.80755859 267.59955566 132.63183594 266.9465332 C131.40035872 266.25607904 130.16891422 265.56556652 128.9375 264.875 C127.65817337 264.16247326 126.37854578 263.45048664 125.09863281 262.73901367 C122.42576573 261.25271252 119.75422381 259.7640674 117.08349609 258.27392578 C111.10962538 254.94372096 105.11773619 251.64620007 99.12698364 248.34649658 C95.07947709 246.11679791 91.03300815 243.88524391 86.99023438 241.64697266 C85.07012534 240.5894077 83.14473187 239.54134973 81.21289062 238.50537109 C80.39498047 238.06402832 79.57707031 237.62268555 78.734375 237.16796875 C78.03022461 236.79309326 77.32607422 236.41821777 76.60058594 236.03198242 C75 235 75 235 74 233 C73.9078512 231.51748736 73.87806899 230.0308745 73.87974548 228.54550171 C73.87768349 227.14042107 73.87768349 227.14042107 73.87557983 225.70695496 C73.88097275 224.16084282 73.88097275 224.16084282 73.88647461 222.58349609 C73.88632858 221.50055771 73.88618256 220.41761932 73.8860321 219.30186462 C73.88673085 215.70903547 73.89452148 212.11625764 73.90234375 208.5234375 C73.90420807 206.03764881 73.9056319 203.55185975 73.90663147 201.06607056 C73.91006435 195.18353603 73.91795227 189.30102057 73.92798096 183.41849387 C73.94024508 176.06545754 73.94562374 168.71241893 73.95117188 161.359375 C73.96190732 148.23957391 73.97879114 135.11978812 74 122 C73.06946304 121.69973907 72.13892609 121.39947815 71.18019104 121.09011841 C67.90284625 119.96669726 65.11239794 118.55556642 62.08984375 116.8671875 C60.94870117 116.23337158 59.80755859 115.59955566 58.63183594 114.9465332 C57.40035872 114.25607904 56.16891422 113.56556652 54.9375 112.875 C53.65817337 112.16247326 52.37854578 111.45048664 51.09863281 110.73901367 C48.42576573 109.25271252 45.75422381 107.7640674 43.08349609 106.27392578 C37.10962538 102.94372096 31.11773619 99.64620007 25.12698364 96.34649658 C21.07947709 94.11679791 17.03300815 91.88524391 12.99023438 89.64697266 C11.07012534 88.5894077 9.14473187 87.54134973 7.21289062 86.50537109 C6.39498047 86.06402832 5.57707031 85.62268555 4.734375 85.16796875 C4.03022461 84.79309326 3.32607422 84.41821777 2.60058594 84.03198242 C1 83 1 83 0 81 C-0.09297087 78.43666525 -0.12580976 75.90075759 -0.11352539 73.33740234 C-0.11367142 72.54707108 -0.11381744 71.75673981 -0.1139679 70.94245911 C-0.11326983 68.32359089 -0.10548239 65.70479333 -0.09765625 63.0859375 C-0.09579169 61.27275634 -0.09436797 59.45957467 -0.09336853 57.64639282 C-0.08954632 52.86896377 -0.07971855 48.09156501 -0.06866455 43.31414795 C-0.05844407 38.44120697 -0.05386954 33.5682611 -0.04882812 28.6953125 C-0.03809603 19.13019501 -0.02102314 9.56510002 0 0 Z " fill="#CEEFE6" transform="translate(372,195)"/>
<path d="M0 0 C0.33 0 0.66 0 1 0 C1 27.72 1 55.44 1 84 C-6.92 88.29 -14.84 92.58 -23 97 C-31.57355827 101.84583341 -31.57355827 101.84583341 -40.140625 106.703125 C-46.47555605 110.28298719 -52.85552005 113.77783199 -59.25 117.25 C-60.28060547 117.81138672 -61.31121094 118.37277344 -62.37304688 118.95117188 C-63.80487305 119.72557617 -63.80487305 119.72557617 -65.265625 120.515625 C-66.10899414 120.97227539 -66.95236328 121.42892578 -67.82128906 121.89941406 C-70 123 -70 123 -73 124 C-73 160.96 -73 197.92 -73 236 C-80.92 240.29 -88.84 244.58 -97 249 C-105.80802661 253.95752317 -114.60907939 258.92590927 -123.38916016 263.93261719 C-126.83884215 265.89953188 -130.29444563 267.85592018 -133.75 269.8125 C-134.82822021 270.42988037 -135.90644043 271.04726074 -137.01733398 271.68334961 C-138.51695679 272.53038452 -138.51695679 272.53038452 -140.046875 273.39453125 C-141.37477051 274.15020386 -141.37477051 274.15020386 -142.72949219 274.92114258 C-145 276 -145 276 -148 276 C-148.19654887 254.75522948 -148.31293185 233.51136105 -148.33421898 212.26566315 C-148.34596692 202.40044703 -148.38381684 192.53662776 -148.48339844 182.671875 C-148.57014202 174.07229047 -148.60762272 165.47413306 -148.58627188 156.87411261 C-148.57667991 152.32086582 -148.59153197 147.77069277 -148.66541672 143.2179718 C-148.73424764 138.92864956 -148.73700025 134.64426549 -148.68990898 130.35469818 C-148.68415887 128.78410081 -148.70219171 127.21320113 -148.74625206 125.64321136 C-148.87326008 120.82826232 -148.75041769 116.56376021 -147 112 C-142.69205616 108.22314976 -138.23786835 106.21902231 -133 104 C-130.87822571 102.8464674 -128.76756548 101.67190726 -126.67578125 100.46484375 C-124.5551543 99.2882208 -122.43404784 98.1124617 -120.3125 96.9375 C-118.57062676 95.97107945 -116.82875414 95.00465781 -115.08691406 94.03817749 C-112.05834932 92.35805153 -109.02914225 90.67908445 -106 89 C-101.63502309 86.58034747 -97.27041511 84.16003325 -92.90658569 81.73831177 C-91.16117705 80.77006875 -89.41518927 79.80286994 -87.66918945 78.83569336 C-86.60531006 78.2453833 -85.54143066 77.65507324 -84.4453125 77.046875 C-83.51219238 76.52963867 -82.57907227 76.01240234 -81.61767578 75.47949219 C-80.32192627 74.74714355 -80.32192627 74.74714355 -79 74 C-77.59089355 73.35442139 -77.59089355 73.35442139 -76.15332031 72.69580078 C-75.44272461 72.13618652 -74.73212891 71.57657227 -74 71 C-73.5916382 68.10446492 -73.5916382 68.10446492 -74.1015625 64.8203125 C-75.55177278 45.26611144 -75.55177278 45.26611144 -71.10400391 39.57324219 C-65.77792329 35.35136208 -59.57153683 32.87927761 -53.29882812 30.38037109 C-47.86863248 28.10814447 -42.81735002 25.18519944 -37.6875 22.3125 C-35.69454721 21.23357551 -33.69978209 20.15799129 -31.703125 19.0859375 C-26.42804138 16.23853059 -21.17612168 13.35138379 -15.9375 10.4375 C-15.23004639 10.04409424 -14.52259277 9.65068848 -13.79370117 9.24536133 C-12.48590832 8.51617062 -11.17942659 7.78462151 -9.87451172 7.05029297 C-8.58401711 6.32722605 -7.28842656 5.61320395 -5.98876953 4.90673828 C-2.38040337 3.0979101 -2.38040337 3.0979101 0 0 Z " fill="#5A606C" transform="translate(667,193)"/>
<path d="M0 0 C0 26.73 0 53.46 0 81 C0.66 81.33 1.32 81.66 2 82 C0.8965625 82.37382812 -0.206875 82.74765625 -1.34375 83.1328125 C-6.71829307 85.15298066 -11.54714571 87.99648355 -16.5 90.875 C-24.69078277 95.5745643 -32.9285844 100.16081634 -41.25 104.625 C-49.70156572 109.16181589 -58.04775409 113.84277917 -66.29003906 118.75048828 C-67.01674805 119.17958496 -67.74345703 119.60868164 -68.4921875 120.05078125 C-69.44134033 120.61792847 -69.44134033 120.61792847 -70.40966797 121.1965332 C-72 122 -72 122 -74 122 C-74 158.96 -74 195.92 -74 234 C-81.92 238.29 -89.84 242.58 -98 247 C-106.80802661 251.95752317 -115.60907939 256.92590927 -124.38916016 261.93261719 C-127.83884215 263.89953188 -131.29444563 265.85592018 -134.75 267.8125 C-135.82822021 268.42988037 -136.90644043 269.04726074 -138.01733398 269.68334961 C-139.51695679 270.53038452 -139.51695679 270.53038452 -141.046875 271.39453125 C-142.37477051 272.15020386 -142.37477051 272.15020386 -143.72949219 272.92114258 C-146 274 -146 274 -149 274 C-149.19654887 252.75522948 -149.31293185 231.51136105 -149.33421898 210.26566315 C-149.34596692 200.40044703 -149.38381684 190.53662776 -149.48339844 180.671875 C-149.57014202 172.07229047 -149.60762272 163.47413306 -149.58627188 154.87411261 C-149.57667991 150.32086582 -149.59153197 145.77069277 -149.66541672 141.2179718 C-149.73424764 136.92864956 -149.73700025 132.64426549 -149.68990898 128.35469818 C-149.68415887 126.78410081 -149.70219171 125.21320113 -149.74625206 123.64321136 C-149.87326008 118.82826232 -149.75041769 114.56376021 -148 110 C-143.69205616 106.22314976 -139.23786835 104.21902231 -134 102 C-131.87822571 100.8464674 -129.76756548 99.67190726 -127.67578125 98.46484375 C-125.5551543 97.2882208 -123.43404784 96.1124617 -121.3125 94.9375 C-119.57062676 93.97107945 -117.82875414 93.00465781 -116.08691406 92.03817749 C-113.05834932 90.35805153 -110.02914225 88.67908445 -107 87 C-102.63502309 84.58034747 -98.27041511 82.16003325 -93.90658569 79.73831177 C-92.16117705 78.77006875 -90.41518927 77.80286994 -88.66918945 76.83569336 C-87.60531006 76.2453833 -86.54143066 75.65507324 -85.4453125 75.046875 C-84.51219238 74.52963867 -83.57907227 74.01240234 -82.61767578 73.47949219 C-81.32192627 72.74714355 -81.32192627 72.74714355 -80 72 C-78.59089355 71.35442139 -78.59089355 71.35442139 -77.15332031 70.69580078 C-76.44272461 70.13618652 -75.73212891 69.57657227 -75 69 C-74.5916382 66.10446492 -74.5916382 66.10446492 -75.1015625 62.8203125 C-76.55177278 43.26611144 -76.55177278 43.26611144 -72.10400391 37.57324219 C-66.77792329 33.35136208 -60.57153683 30.87927761 -54.29882812 28.38037109 C-48.86863248 26.10814447 -43.81735002 23.18519944 -38.6875 20.3125 C-36.69454721 19.23357551 -34.69978209 18.15799129 -32.703125 17.0859375 C-27.42804138 14.23853059 -22.17612168 11.35138379 -16.9375 8.4375 C-16.23004639 8.04409424 -15.52259277 7.65068848 -14.79370117 7.24536133 C-14.12830322 6.87435303 -13.46290527 6.50334473 -12.77734375 6.12109375 C-12.14812012 5.77030762 -11.51889648 5.41952148 -10.87060547 5.05810547 C-9.58178318 4.32908487 -8.29987722 3.58774584 -7.02392578 2.83642578 C-2.1978984 0 -2.1978984 0 0 0 Z " fill="#5A606C" transform="translate(371,195)"/>
<path d="M0 0 C0 27.06 0 54.12 0 82 C-7.92 86.29 -15.84 90.58 -24 95 C-32.80802661 99.95752317 -41.60907939 104.92590927 -50.38916016 109.93261719 C-53.83884215 111.89953188 -57.29444563 113.85592018 -60.75 115.8125 C-61.82822021 116.42988037 -62.90644043 117.04726074 -64.01733398 117.68334961 C-65.01708252 118.24803955 -66.01683105 118.81272949 -67.046875 119.39453125 C-68.37477051 120.15020386 -68.37477051 120.15020386 -69.72949219 120.92114258 C-72 122 -72 122 -75 122 C-74.505 81.41 -74.505 81.41 -74 40 C-62.36328125 33.53515625 -50.7265625 27.0703125 -39.08984375 20.60546875 C-38.04948975 20.02740479 -37.00913574 19.44934082 -35.93725586 18.85375977 C-33.82509109 17.68052589 -31.71259295 16.50789207 -29.59985352 15.33569336 C-24.51765601 12.51513115 -19.43923499 9.68864498 -14.375 6.8359375 C-13.53203369 6.36260986 -12.68906738 5.88928223 -11.82055664 5.40161133 C-10.27868973 4.53518986 -8.73867984 3.66545176 -7.20092773 2.79174805 C-2.22396676 0 -2.22396676 0 0 0 Z " fill="#595F6B" transform="translate(594,347)"/>
<path d="M0 0 C0 27.06 0 54.12 0 82 C-7.92 86.29 -15.84 90.58 -24 95 C-32.80802661 99.95752317 -41.60907939 104.92590927 -50.38916016 109.93261719 C-53.83884215 111.89953188 -57.29444563 113.85592018 -60.75 115.8125 C-61.82822021 116.42988037 -62.90644043 117.04726074 -64.01733398 117.68334961 C-65.01708252 118.24803955 -66.01683105 118.81272949 -67.046875 119.39453125 C-68.37477051 120.15020386 -68.37477051 120.15020386 -69.72949219 120.92114258 C-72 122 -72 122 -75 122 C-74.505 81.41 -74.505 81.41 -74 40 C-62.36328125 33.53515625 -50.7265625 27.0703125 -39.08984375 20.60546875 C-38.04948975 20.02740479 -37.00913574 19.44934082 -35.93725586 18.85375977 C-33.82509109 17.68052589 -31.71259295 16.50789207 -29.59985352 15.33569336 C-24.51765601 12.51513115 -19.43923499 9.68864498 -14.375 6.8359375 C-13.53203369 6.36260986 -12.68906738 5.88928223 -11.82055664 5.40161133 C-10.27868973 4.53518986 -8.73867984 3.66545176 -7.20092773 2.79174805 C-2.22396676 0 -2.22396676 0 0 0 Z " fill="#595F6B" transform="translate(297,347)"/>
<path d="M0 0 C4.62 2.31 9.24 4.62 14 7 C14 7.66 14 8.32 14 9 C14.7425 9.12375 15.485 9.2475 16.25 9.375 C18.80141485 9.95486701 20.7267573 10.73708739 23 12 C23 12.66 23 13.32 23 14 C23.721875 14.11303467 24.44375 14.22606934 25.1875 14.3425293 C28.15059803 15.0352049 30.33564762 16.06068663 33 17.51953125 C33.95986816 18.04216553 34.91973633 18.5647998 35.90869141 19.10327148 C36.92882324 19.66731689 37.94895508 20.2313623 39 20.8125 C40.05493652 21.38621338 41.10987305 21.95992676 42.19677734 22.55102539 C47.53837131 25.47192244 52.82181913 28.46364278 58.0390625 31.6015625 C58.98136719 32.16254639 59.92367187 32.72353027 60.89453125 33.30151367 C62.6814979 34.37219174 64.45814614 35.46033052 66.22265625 36.56762695 C67.43115234 37.29018677 67.43115234 37.29018677 68.6640625 38.02734375 C69.35967285 38.45781006 70.0552832 38.88827637 70.77197266 39.33178711 C74.83557934 40.55051289 78.07354114 38.46335512 81.69946289 36.64990234 C82.6146167 36.13379395 83.52977051 35.61768555 84.47265625 35.0859375 C85.52308105 34.49748047 86.57350586 33.90902344 87.65576172 33.30273438 C89.34209717 32.34850586 89.34209717 32.34850586 91.0625 31.375 C92.24981766 30.70836936 93.43748754 30.04236569 94.62548828 29.37695312 C96.48967407 28.33273365 98.35364905 27.28815698 100.21661377 26.24176025 C106.63347297 22.63804558 113.07353413 19.07684445 119.51852417 15.52374268 C121.31766114 14.53161918 123.11604863 13.53814913 124.91430664 12.54443359 C132.58300885 8.31255754 140.28034422 4.13797779 148 0 C148.19847749 4.03787195 148.34323514 8.0738422 148.43945312 12.11547852 C148.47957083 13.4883775 148.53408586 14.86093698 148.60351562 16.23266602 C149.15782462 27.4696506 149.15782462 27.4696506 146.65161133 30.78222656 C144.50944189 32.15099965 142.35649594 33.04463375 140 34 C137.93081156 35.13453345 135.8731178 36.29016014 133.82421875 37.4609375 C131.44649243 38.76784203 129.067609 40.07245765 126.6875 41.375 C124.10101774 42.79458188 121.51536035 44.21566326 118.9296875 45.63671875 C118.27388199 45.99685562 117.61807648 46.35699249 116.94239807 46.7280426 C112.43453575 49.20532261 107.93677006 51.70014367 103.4453125 54.20703125 C102.84070694 54.54424194 102.23610138 54.88145264 101.61317444 55.22888184 C98.74357354 56.82965222 95.87518841 58.43250824 93.00854492 60.03857422 C90.96146471 61.18041373 88.90570199 62.30686911 86.84033203 63.4152832 C83.99751155 64.94425076 83.99751155 64.94425076 81.45263672 66.74682617 C78.89342873 68.38018346 76.98445822 69.41705151 74 70 C69.35175409 68.78351691 65.56596291 66.44834156 61.5 63.9375 C60.36812256 63.28241455 59.23624512 62.6273291 58.07006836 61.95239258 C55.78079025 60.62536643 53.50056906 59.28258495 51.22998047 57.92382812 C46.72924621 55.24311868 42.15009531 52.71536841 37.5625 50.1875 C36.46421875 49.56766235 36.46421875 49.56766235 35.34375 48.93530273 C32.58477393 47.38072072 30.01263827 46.00421276 27 45 C27 44.34 27 43.68 27 43 C24.03 42.01 21.06 41.02 18 40 C18 39.34 18 38.68 18 38 C17.14051758 37.72551025 16.28103516 37.45102051 15.39550781 37.16821289 C9.63596709 35.18666253 4.44646231 33.29012787 0 29 C-1.47252398 23.99118737 -1.14561977 19.20742309 -0.75 14.0625 C-0.68972941 12.6975007 -0.63498965 11.33224534 -0.5859375 9.96679688 C-0.44494751 6.64178294 -0.22970341 3.32006509 0 0 Z " fill="#A3C2C7" transform="translate(446,235)"/>
<path d="M0 0 C4.62 2.31 9.24 4.62 14 7 C14 7.66 14 8.32 14 9 C14.7425 9.12375 15.485 9.2475 16.25 9.375 C18.80141485 9.95486701 20.7267573 10.73708739 23 12 C23 12.66 23 13.32 23 14 C23.721875 14.11303467 24.44375 14.22606934 25.1875 14.3425293 C28.15059803 15.0352049 30.33564762 16.06068663 33 17.51953125 C33.95986816 18.04216553 34.91973633 18.5647998 35.90869141 19.10327148 C36.92882324 19.66731689 37.94895508 20.2313623 39 20.8125 C40.05493652 21.38621338 41.10987305 21.95992676 42.19677734 22.55102539 C47.53837131 25.47192244 52.82181913 28.46364278 58.0390625 31.6015625 C58.98136719 32.16254639 59.92367187 32.72353027 60.89453125 33.30151367 C62.6814979 34.37219174 64.45814614 35.46033052 66.22265625 36.56762695 C67.43115234 37.29018677 67.43115234 37.29018677 68.6640625 38.02734375 C69.35967285 38.45781006 70.0552832 38.88827637 70.77197266 39.33178711 C74.83557934 40.55051289 78.07354114 38.46335512 81.69946289 36.64990234 C82.6146167 36.13379395 83.52977051 35.61768555 84.47265625 35.0859375 C85.52308105 34.49748047 86.57350586 33.90902344 87.65576172 33.30273438 C89.34209717 32.34850586 89.34209717 32.34850586 91.0625 31.375 C92.24981766 30.70836936 93.43748754 30.04236569 94.62548828 29.37695312 C96.48967407 28.33273365 98.35364905 27.28815698 100.21661377 26.24176025 C106.63347297 22.63804558 113.07353413 19.07684445 119.51852417 15.52374268 C121.31766114 14.53161918 123.11604863 13.53814913 124.91430664 12.54443359 C132.58300885 8.31255754 140.28034422 4.13797779 148 0 C148.19847749 4.03787195 148.34323514 8.0738422 148.43945312 12.11547852 C148.47957083 13.4883775 148.53408586 14.86093698 148.60351562 16.23266602 C149.15782462 27.4696506 149.15782462 27.4696506 146.65161133 30.78222656 C144.50944189 32.15099965 142.35649594 33.04463375 140 34 C137.93081156 35.13453345 135.8731178 36.29016014 133.82421875 37.4609375 C131.44649243 38.76784203 129.067609 40.07245765 126.6875 41.375 C124.10101774 42.79458188 121.51536035 44.21566326 118.9296875 45.63671875 C118.27388199 45.99685562 117.61807648 46.35699249 116.94239807 46.7280426 C112.43453575 49.20532261 107.93677006 51.70014367 103.4453125 54.20703125 C102.84070694 54.54424194 102.23610138 54.88145264 101.61317444 55.22888184 C98.74357354 56.82965222 95.87518841 58.43250824 93.00854492 60.03857422 C90.96146471 61.18041373 88.90570199 62.30686911 86.84033203 63.4152832 C83.99751155 64.94425076 83.99751155 64.94425076 81.45263672 66.74682617 C78.89342873 68.38018346 76.98445822 69.41705151 74 70 C69.35175409 68.78351691 65.56596291 66.44834156 61.5 63.9375 C60.36812256 63.28241455 59.23624512 62.6273291 58.07006836 61.95239258 C55.78079025 60.62536643 53.50056906 59.28258495 51.22998047 57.92382812 C46.72924621 55.24311868 42.15009531 52.71536841 37.5625 50.1875 C36.46421875 49.56766235 36.46421875 49.56766235 35.34375 48.93530273 C32.58477393 47.38072072 30.01263827 46.00421276 27 45 C27 44.34 27 43.68 27 43 C24.03 42.01 21.06 41.02 18 40 C18 39.34 18 38.68 18 38 C17.14051758 37.72551025 16.28103516 37.45102051 15.39550781 37.16821289 C9.63596709 35.18666253 4.44646231 33.29012787 0 29 C-1.47252398 23.99118737 -1.14561977 19.20742309 -0.75 14.0625 C-0.68972941 12.6975007 -0.63498965 11.33224534 -0.5859375 9.96679688 C-0.44494751 6.64178294 -0.22970341 3.32006509 0 0 Z " fill="#A3C2C7" transform="translate(149,235)"/>
<path d="M0 0 C0 27.06 0 54.12 0 82 C-4.11578493 80.62807169 -6.99646758 79.60598717 -10.59765625 77.5234375 C-11.46720947 77.02545654 -12.3367627 76.52747559 -13.23266602 76.0144043 C-14.63343384 75.20289917 -14.63343384 75.20289917 -16.0625 74.375 C-18.11374277 73.20035385 -20.1658702 72.02725159 -22.21875 70.85546875 C-23.31058594 70.2320459 -24.40242188 69.60862305 -25.52734375 68.96630859 C-32.27040633 65.14821059 -39.06769167 61.42771735 -45.86135864 57.70062256 C-49.31764161 55.8042316 -52.76951277 53.90018 -56.21612549 51.98626709 C-57.45928972 51.29894746 -58.70471153 50.61570204 -59.95184326 49.93560791 C-61.90890991 48.8679158 -63.85913997 47.7885468 -65.80859375 46.70703125 C-66.41413589 46.3803093 -67.01967804 46.05358734 -67.64356995 45.71696472 C-71.88627655 43.34117034 -71.88627655 43.34117034 -73 40 C-42.36132813 22.97851563 -42.36132813 22.97851563 -40.58454895 21.99142456 C-38.84044745 21.02247087 -37.0963711 20.05347192 -35.35229492 19.08447266 C-33.08698639 17.8260579 -30.82152565 16.5679171 -28.5559082 15.31005859 C-23.48029325 12.49173192 -18.40654315 9.67026588 -13.33984375 6.8359375 C-12.49236572 6.36260986 -11.6448877 5.88928223 -10.77172852 5.40161133 C-9.21784572 4.53341869 -7.66488904 3.66356557 -6.11303711 2.79174805 C-1.11198338 0 -1.11198338 0 0 0 Z " fill="#DCF3ED" transform="translate(520,305)"/>
<path d="M0 0 C0 27.06 0 54.12 0 82 C-4.11578493 80.62807169 -6.99646758 79.60598717 -10.59765625 77.5234375 C-11.46720947 77.02545654 -12.3367627 76.52747559 -13.23266602 76.0144043 C-14.63343384 75.20289917 -14.63343384 75.20289917 -16.0625 74.375 C-18.11374277 73.20035385 -20.1658702 72.02725159 -22.21875 70.85546875 C-23.31058594 70.2320459 -24.40242188 69.60862305 -25.52734375 68.96630859 C-32.27040633 65.14821059 -39.06769167 61.42771735 -45.86135864 57.70062256 C-49.31764161 55.8042316 -52.76951277 53.90018 -56.21612549 51.98626709 C-57.45928972 51.29894746 -58.70471153 50.61570204 -59.95184326 49.93560791 C-61.90890991 48.8679158 -63.85913997 47.7885468 -65.80859375 46.70703125 C-66.41413589 46.3803093 -67.01967804 46.05358734 -67.64356995 45.71696472 C-71.88627655 43.34117034 -71.88627655 43.34117034 -73 40 C-42.36132813 22.97851563 -42.36132813 22.97851563 -40.58454895 21.99142456 C-38.84044745 21.02247087 -37.0963711 20.05347192 -35.35229492 19.08447266 C-33.08698639 17.8260579 -30.82152565 16.5679171 -28.5559082 15.31005859 C-23.48029325 12.49173192 -18.40654315 9.67026588 -13.33984375 6.8359375 C-12.49236572 6.36260986 -11.6448877 5.88928223 -10.77172852 5.40161133 C-9.21784572 4.53341869 -7.66488904 3.66356557 -6.11303711 2.79174805 C-1.11198338 0 -1.11198338 0 0 0 Z " fill="#DCF3ED" transform="translate(223,305)"/>
<path d="M0 0 C3.75635569 0.75127114 5.83210307 1.24005726 9 3 C9 3.66 9 4.32 9 5 C9.7425 5.12375 10.485 5.2475 11.25 5.375 C13.80141485 5.95486701 15.7267573 6.73708739 18 8 C18 8.66 18 9.32 18 10 C18.7233252 10.11375977 19.44665039 10.22751953 20.19189453 10.34472656 C23.13060389 11.03047651 25.28887708 12.03650177 27.9296875 13.484375 C28.8794043 14.00153076 29.82912109 14.51868652 30.80761719 15.05151367 C31.81985352 15.61201416 32.83208984 16.17251465 33.875 16.75 C34.92333008 17.32403564 35.97166016 17.89807129 37.05175781 18.48950195 C45.63783261 23.20645595 54.174588 28.0118788 62.68701172 32.86035156 C63.5895166 33.37436523 64.49202148 33.88837891 65.421875 34.41796875 C66.21174805 34.86938232 67.00162109 35.3207959 67.81542969 35.78588867 C69.85144219 36.91743652 71.90801258 37.97635658 74 39 C74 39.66 74 40.32 74 41 C73.33282959 41.35602295 72.66565918 41.7120459 71.97827148 42.07885742 C55.11160176 51.09084459 38.40111434 60.33637831 21.79980469 69.83007812 C19.63789663 71.06600649 17.47507305 72.30033497 15.3112793 73.53295898 C13.26629962 74.69793412 11.22340485 75.86657858 9.18286133 77.03930664 C8.27044678 77.55871826 7.35803223 78.07812988 6.41796875 78.61328125 C5.61125732 79.07516846 4.8045459 79.53705566 3.97338867 80.01293945 C2 81 2 81 0 81 C0 54.27 0 27.54 0 0 Z " fill="#7CA9AF" transform="translate(520,306)"/>
<path d="M0 0 C3.75635569 0.75127114 5.83210307 1.24005726 9 3 C9 3.66 9 4.32 9 5 C9.7425 5.12375 10.485 5.2475 11.25 5.375 C13.80141485 5.95486701 15.7267573 6.73708739 18 8 C18 8.66 18 9.32 18 10 C18.7233252 10.11375977 19.44665039 10.22751953 20.19189453 10.34472656 C23.13060389 11.03047651 25.28887708 12.03650177 27.9296875 13.484375 C28.8794043 14.00153076 29.82912109 14.51868652 30.80761719 15.05151367 C31.81985352 15.61201416 32.83208984 16.17251465 33.875 16.75 C34.92333008 17.32403564 35.97166016 17.89807129 37.05175781 18.48950195 C45.63783261 23.20645595 54.174588 28.0118788 62.68701172 32.86035156 C63.5895166 33.37436523 64.49202148 33.88837891 65.421875 34.41796875 C66.21174805 34.86938232 67.00162109 35.3207959 67.81542969 35.78588867 C69.85144219 36.91743652 71.90801258 37.97635658 74 39 C74 39.66 74 40.32 74 41 C73.33282959 41.35602295 72.66565918 41.7120459 71.97827148 42.07885742 C55.11160176 51.09084459 38.40111434 60.33637831 21.79980469 69.83007812 C19.63789663 71.06600649 17.47507305 72.30033497 15.3112793 73.53295898 C13.26629962 74.69793412 11.22340485 75.86657858 9.18286133 77.03930664 C8.27044678 77.55871826 7.35803223 78.07812988 6.41796875 78.61328125 C5.61125732 79.07516846 4.8045459 79.53705566 3.97338867 80.01293945 C2 81 2 81 0 81 C0 54.27 0 27.54 0 0 Z " fill="#7CA9AF" transform="translate(223,306)"/>
<path d="M0 0 C5.28 0 10.56 0 16 0 C16 1.32 16 2.64 16 4 C10.72 4 5.44 4 0 4 C0 2.68 0 1.36 0 0 Z " fill="#7CA9AF" transform="translate(566,508)"/>
</svg>
